<svg width="15" height="15" viewBox="0 0 15 15" fill="none" xmlns="http://www.w3.org/2000/svg">
<path d="M0.5 7.5C0.5 8.88447 0.910543 10.2378 1.67971 11.389C2.44888 12.5401 3.54213 13.4373 4.82122 13.9672C6.1003 14.497 7.50776 14.6356 8.86563 14.3655C10.2235 14.0954 11.4708 13.4287 12.4497 12.4497C13.4287 11.4708 14.0954 10.2235 14.3655 8.86563C14.6356 7.50776 14.497 6.1003 13.9672 4.82121C13.4373 3.54213 12.5401 2.44888 11.389 1.67971C10.2378 0.910542 8.88447 0.499999 7.5 0.499999C5.64458 0.503557 3.86617 1.2422 2.55418 2.55418C1.2422 3.86617 0.503557 5.64458 0.5 7.5ZM7.05577 4.67981L9.74807 7.10288C9.80316 7.15333 9.84716 7.21469 9.87725 7.28305C9.90735 7.35142 9.92289 7.4253 9.92289 7.5C9.92289 7.5747 9.90735 7.64858 9.87725 7.71694C9.84716 7.78531 9.80316 7.84667 9.74807 7.89711L7.05577 10.3202C6.94988 10.413 6.81186 10.4606 6.67128 10.4528C6.5307 10.4451 6.39875 10.3826 6.3037 10.2788C6.20864 10.1749 6.15804 10.0379 6.16274 9.89723C6.16745 9.75651 6.22707 9.62324 6.32884 9.52596L8.57692 7.5L6.32884 5.47404C6.27492 5.42679 6.23098 5.36925 6.19959 5.30479C6.1682 5.24034 6.15 5.17026 6.14606 5.09867C6.14212 5.02709 6.15251 4.95544 6.17662 4.88792C6.20074 4.82041 6.23809 4.75839 6.2865 4.7055C6.3349 4.65262 6.39338 4.60993 6.4585 4.57995C6.52362 4.54996 6.59408 4.53328 6.66573 4.53089C6.73738 4.52849 6.80879 4.54044 6.87577 4.56601C6.94275 4.59158 7.00394 4.63027 7.05577 4.67981Z" fill="white"/>
</svg>
